<mxfile host="app.diagrams.net" modified="2024-02-24T06:39:27.359Z" agent="Mozilla/5.0 (Windows NT 10.0; Win64; x64) AppleWebKit/537.36 (KHTML, like Gecko) Chrome/121.0.0.0 Safari/537.36" etag="MCaeiD6U7zN5ksylspVO" version="23.1.5" type="device">
  <diagram name="Page-1" id="tKDk2SeVcZ5V7y7LFxYa">
    <mxGraphModel dx="819" dy="441" grid="1" gridSize="10" guides="1" tooltips="1" connect="1" arrows="1" fold="1" page="1" pageScale="1" pageWidth="850" pageHeight="1100" math="0" shadow="0">
      <root>
        <mxCell id="0" />
        <mxCell id="1" parent="0" />
        <mxCell id="cCwmByM-U92SuMCuFD1A-1" value="&lt;b&gt;Задача 1&lt;/b&gt;&lt;span style=&quot;color: rgb(44, 45, 48); font-family: Onest, Roboto, &amp;quot;San Francisco&amp;quot;, &amp;quot;Helvetica Neue&amp;quot;, Helvetica, Arial; font-size: 15px; background-color: rgb(255, 255, 255);&quot;&gt;: &lt;/span&gt;&lt;span style=&quot;color: rgb(44, 45, 48); font-family: Onest, Roboto, &amp;quot;San Francisco&amp;quot;, &amp;quot;Helvetica Neue&amp;quot;, Helvetica, Arial; background-color: rgb(255, 255, 255);&quot;&gt;&lt;font style=&quot;font-size: 12px;&quot;&gt;Напишите программу, которая принимает на вход число и проверяет, кратно ли оно одновременно 7 и 23.&lt;/font&gt;&lt;/span&gt;" style="text;html=1;align=left;verticalAlign=middle;whiteSpace=wrap;rounded=0;" vertex="1" parent="1">
          <mxGeometry x="20" y="10" width="840" height="30" as="geometry" />
        </mxCell>
        <mxCell id="cCwmByM-U92SuMCuFD1A-4" value="" style="edgeStyle=orthogonalEdgeStyle;rounded=0;orthogonalLoop=1;jettySize=auto;html=1;" edge="1" parent="1" source="cCwmByM-U92SuMCuFD1A-2" target="cCwmByM-U92SuMCuFD1A-3">
          <mxGeometry relative="1" as="geometry" />
        </mxCell>
        <mxCell id="cCwmByM-U92SuMCuFD1A-2" value="Start" style="ellipse;whiteSpace=wrap;html=1;" vertex="1" parent="1">
          <mxGeometry x="290" y="70" width="100" height="70" as="geometry" />
        </mxCell>
        <mxCell id="cCwmByM-U92SuMCuFD1A-6" style="edgeStyle=orthogonalEdgeStyle;rounded=0;orthogonalLoop=1;jettySize=auto;html=1;exitX=0.5;exitY=1;exitDx=0;exitDy=0;entryX=0.5;entryY=0;entryDx=0;entryDy=0;" edge="1" parent="1" source="cCwmByM-U92SuMCuFD1A-3">
          <mxGeometry relative="1" as="geometry">
            <mxPoint x="340" y="300" as="targetPoint" />
          </mxGeometry>
        </mxCell>
        <mxCell id="cCwmByM-U92SuMCuFD1A-3" value="num" style="shape=parallelogram;perimeter=parallelogramPerimeter;whiteSpace=wrap;html=1;fixedSize=1;" vertex="1" parent="1">
          <mxGeometry x="270" y="180" width="140" height="75" as="geometry" />
        </mxCell>
        <mxCell id="cCwmByM-U92SuMCuFD1A-9" style="edgeStyle=orthogonalEdgeStyle;rounded=0;orthogonalLoop=1;jettySize=auto;html=1;exitX=0.5;exitY=1;exitDx=0;exitDy=0;entryX=0.5;entryY=0;entryDx=0;entryDy=0;" edge="1" parent="1" source="cCwmByM-U92SuMCuFD1A-7" target="cCwmByM-U92SuMCuFD1A-8">
          <mxGeometry relative="1" as="geometry" />
        </mxCell>
        <mxCell id="cCwmByM-U92SuMCuFD1A-10" value="YES" style="edgeLabel;html=1;align=center;verticalAlign=middle;resizable=0;points=[];" vertex="1" connectable="0" parent="cCwmByM-U92SuMCuFD1A-9">
          <mxGeometry x="-0.2238" y="3" relative="1" as="geometry">
            <mxPoint as="offset" />
          </mxGeometry>
        </mxCell>
        <mxCell id="cCwmByM-U92SuMCuFD1A-17" style="edgeStyle=orthogonalEdgeStyle;rounded=0;orthogonalLoop=1;jettySize=auto;html=1;exitX=1;exitY=0.5;exitDx=0;exitDy=0;entryX=0.5;entryY=0;entryDx=0;entryDy=0;" edge="1" parent="1" source="cCwmByM-U92SuMCuFD1A-7" target="cCwmByM-U92SuMCuFD1A-16">
          <mxGeometry relative="1" as="geometry" />
        </mxCell>
        <mxCell id="cCwmByM-U92SuMCuFD1A-19" value="NO" style="edgeLabel;html=1;align=center;verticalAlign=middle;resizable=0;points=[];" vertex="1" connectable="0" parent="cCwmByM-U92SuMCuFD1A-17">
          <mxGeometry x="-0.6877" y="1" relative="1" as="geometry">
            <mxPoint as="offset" />
          </mxGeometry>
        </mxCell>
        <mxCell id="cCwmByM-U92SuMCuFD1A-7" value="num % 7 == 0 ?" style="rhombus;whiteSpace=wrap;html=1;" vertex="1" parent="1">
          <mxGeometry x="270" y="300" width="140" height="110" as="geometry" />
        </mxCell>
        <mxCell id="cCwmByM-U92SuMCuFD1A-12" value="" style="edgeStyle=orthogonalEdgeStyle;rounded=0;orthogonalLoop=1;jettySize=auto;html=1;" edge="1" parent="1" source="cCwmByM-U92SuMCuFD1A-8" target="cCwmByM-U92SuMCuFD1A-11">
          <mxGeometry relative="1" as="geometry" />
        </mxCell>
        <mxCell id="cCwmByM-U92SuMCuFD1A-13" value="YES" style="edgeLabel;html=1;align=center;verticalAlign=middle;resizable=0;points=[];" vertex="1" connectable="0" parent="cCwmByM-U92SuMCuFD1A-12">
          <mxGeometry x="-0.0429" y="-1" relative="1" as="geometry">
            <mxPoint as="offset" />
          </mxGeometry>
        </mxCell>
        <mxCell id="cCwmByM-U92SuMCuFD1A-18" style="edgeStyle=orthogonalEdgeStyle;rounded=0;orthogonalLoop=1;jettySize=auto;html=1;exitX=1;exitY=0.5;exitDx=0;exitDy=0;entryX=0.5;entryY=0;entryDx=0;entryDy=0;" edge="1" parent="1" source="cCwmByM-U92SuMCuFD1A-8" target="cCwmByM-U92SuMCuFD1A-16">
          <mxGeometry relative="1" as="geometry" />
        </mxCell>
        <mxCell id="cCwmByM-U92SuMCuFD1A-20" value="NO" style="edgeLabel;html=1;align=center;verticalAlign=middle;resizable=0;points=[];" vertex="1" connectable="0" parent="cCwmByM-U92SuMCuFD1A-18">
          <mxGeometry x="-0.4402" y="-1" relative="1" as="geometry">
            <mxPoint as="offset" />
          </mxGeometry>
        </mxCell>
        <mxCell id="cCwmByM-U92SuMCuFD1A-8" value="num % 23 == 0 ?" style="rhombus;whiteSpace=wrap;html=1;" vertex="1" parent="1">
          <mxGeometry x="270" y="470" width="140" height="110" as="geometry" />
        </mxCell>
        <mxCell id="cCwmByM-U92SuMCuFD1A-15" style="edgeStyle=orthogonalEdgeStyle;rounded=0;orthogonalLoop=1;jettySize=auto;html=1;entryX=0.5;entryY=0;entryDx=0;entryDy=0;" edge="1" parent="1" source="cCwmByM-U92SuMCuFD1A-11" target="cCwmByM-U92SuMCuFD1A-14">
          <mxGeometry relative="1" as="geometry" />
        </mxCell>
        <mxCell id="cCwmByM-U92SuMCuFD1A-11" value="num - кратно 7 и 23" style="shape=document;whiteSpace=wrap;html=1;boundedLbl=1;" vertex="1" parent="1">
          <mxGeometry x="280" y="660" width="120" height="80" as="geometry" />
        </mxCell>
        <mxCell id="cCwmByM-U92SuMCuFD1A-14" value="End" style="ellipse;whiteSpace=wrap;html=1;" vertex="1" parent="1">
          <mxGeometry x="290" y="790" width="100" height="70" as="geometry" />
        </mxCell>
        <mxCell id="cCwmByM-U92SuMCuFD1A-21" style="edgeStyle=orthogonalEdgeStyle;rounded=0;orthogonalLoop=1;jettySize=auto;html=1;" edge="1" parent="1" source="cCwmByM-U92SuMCuFD1A-16" target="cCwmByM-U92SuMCuFD1A-14">
          <mxGeometry relative="1" as="geometry">
            <Array as="points">
              <mxPoint x="545" y="750" />
              <mxPoint x="340" y="750" />
            </Array>
          </mxGeometry>
        </mxCell>
        <mxCell id="cCwmByM-U92SuMCuFD1A-16" value="num - некратно 7 и 23" style="shape=document;whiteSpace=wrap;html=1;boundedLbl=1;" vertex="1" parent="1">
          <mxGeometry x="480" y="660" width="130" height="80" as="geometry" />
        </mxCell>
      </root>
    </mxGraphModel>
  </diagram>
</mxfile>
